<mxfile host="app.diagrams.net" modified="2020-12-07T13:12:50.314Z" agent="5.0 (Windows NT 10.0; Win64; x64) AppleWebKit/537.36 (KHTML, like Gecko) Chrome/87.0.4280.88 Safari/537.36" etag="lc0ko43NONwGopaHvH1S" version="13.10.6" type="github">
  <diagram id="9D4_06RuPHcv2f0q0tR7" name="Page-1">
    <mxGraphModel dx="1248" dy="706" grid="1" gridSize="10" guides="1" tooltips="1" connect="1" arrows="1" fold="1" page="1" pageScale="1" pageWidth="1169" pageHeight="827" math="0" shadow="0">
      <root>
        <mxCell id="0" />
        <mxCell id="1" parent="0" />
        <mxCell id="odwM-vzNzOkf9QKxyUFN-6" style="edgeStyle=orthogonalEdgeStyle;rounded=0;orthogonalLoop=1;jettySize=auto;html=1;" edge="1" parent="1" source="odwM-vzNzOkf9QKxyUFN-1" target="odwM-vzNzOkf9QKxyUFN-5">
          <mxGeometry relative="1" as="geometry" />
        </mxCell>
        <mxCell id="odwM-vzNzOkf9QKxyUFN-1" value="Гражданин России" style="rounded=0;whiteSpace=wrap;html=1;" vertex="1" parent="1">
          <mxGeometry x="40" y="80" width="270" height="20" as="geometry" />
        </mxCell>
        <mxCell id="odwM-vzNzOkf9QKxyUFN-2" value="&lt;font style=&quot;font-size: 16px&quot;&gt;Схема появления проживающих студентов в 1С: БИТ ОБЩЕЖИТИЕ&lt;/font&gt;" style="text;html=1;strokeColor=none;fillColor=none;align=center;verticalAlign=middle;whiteSpace=wrap;rounded=0;" vertex="1" parent="1">
          <mxGeometry x="180" width="830" height="20" as="geometry" />
        </mxCell>
        <mxCell id="odwM-vzNzOkf9QKxyUFN-25" style="edgeStyle=orthogonalEdgeStyle;rounded=0;orthogonalLoop=1;jettySize=auto;html=1;" edge="1" parent="1" source="odwM-vzNzOkf9QKxyUFN-3" target="odwM-vzNzOkf9QKxyUFN-22">
          <mxGeometry relative="1" as="geometry" />
        </mxCell>
        <mxCell id="odwM-vzNzOkf9QKxyUFN-3" value="Гражданин иностранного государства" style="rounded=0;whiteSpace=wrap;html=1;" vertex="1" parent="1">
          <mxGeometry x="500" y="80" width="240" height="20" as="geometry" />
        </mxCell>
        <mxCell id="odwM-vzNzOkf9QKxyUFN-28" style="edgeStyle=orthogonalEdgeStyle;rounded=0;orthogonalLoop=1;jettySize=auto;html=1;" edge="1" parent="1" source="odwM-vzNzOkf9QKxyUFN-4" target="odwM-vzNzOkf9QKxyUFN-26">
          <mxGeometry relative="1" as="geometry" />
        </mxCell>
        <mxCell id="odwM-vzNzOkf9QKxyUFN-4" value="1С: БИТ ОБщежитие" style="rounded=0;whiteSpace=wrap;html=1;" vertex="1" parent="1">
          <mxGeometry x="940" y="80" width="210" height="20" as="geometry" />
        </mxCell>
        <mxCell id="odwM-vzNzOkf9QKxyUFN-8" style="edgeStyle=orthogonalEdgeStyle;rounded=0;orthogonalLoop=1;jettySize=auto;html=1;" edge="1" parent="1" source="odwM-vzNzOkf9QKxyUFN-5" target="odwM-vzNzOkf9QKxyUFN-7">
          <mxGeometry relative="1" as="geometry" />
        </mxCell>
        <mxCell id="odwM-vzNzOkf9QKxyUFN-5" value="На этапе приемной компании через личный кабинет абитуриента проставляется галочка &quot;Нуждаюсь в общежитии&quot;" style="rounded=0;whiteSpace=wrap;html=1;" vertex="1" parent="1">
          <mxGeometry x="40" y="130" width="270" height="50" as="geometry" />
        </mxCell>
        <mxCell id="odwM-vzNzOkf9QKxyUFN-15" style="edgeStyle=orthogonalEdgeStyle;rounded=0;orthogonalLoop=1;jettySize=auto;html=1;" edge="1" parent="1" source="odwM-vzNzOkf9QKxyUFN-7" target="odwM-vzNzOkf9QKxyUFN-9">
          <mxGeometry relative="1" as="geometry" />
        </mxCell>
        <mxCell id="odwM-vzNzOkf9QKxyUFN-7" value="В 1С: Университет с помощью обработки формируются документы &quot;Заявления на проживание&quot; (Структура университета - Заселения и выселения)" style="rounded=0;whiteSpace=wrap;html=1;" vertex="1" parent="1">
          <mxGeometry x="40" y="300" width="270" height="60" as="geometry" />
        </mxCell>
        <mxCell id="odwM-vzNzOkf9QKxyUFN-31" style="edgeStyle=orthogonalEdgeStyle;rounded=0;orthogonalLoop=1;jettySize=auto;html=1;" edge="1" parent="1" source="odwM-vzNzOkf9QKxyUFN-9" target="odwM-vzNzOkf9QKxyUFN-30">
          <mxGeometry relative="1" as="geometry" />
        </mxCell>
        <mxCell id="odwM-vzNzOkf9QKxyUFN-9" value="В документе &quot;Заявления на проживание&quot; выбираются студенты для включения в Приказ&amp;nbsp;" style="rounded=0;whiteSpace=wrap;html=1;" vertex="1" parent="1">
          <mxGeometry x="40" y="384" width="270" height="60" as="geometry" />
        </mxCell>
        <mxCell id="odwM-vzNzOkf9QKxyUFN-14" value="&lt;font style=&quot;font-size: 11px&quot;&gt;&lt;font style=&quot;font-size: 11px&quot;&gt;&lt;span style=&quot;background-color: rgb(255 , 255 , 255)&quot;&gt;Формирование производит подразделение&amp;nbsp;&lt;font style=&quot;font-size: 11px&quot;&gt;Управление корпоративной политики и воспитательной работы&lt;font style=&quot;font-size: 11px&quot;&gt;&amp;nbsp;&lt;/font&gt;&lt;/font&gt;&lt;/span&gt;&lt;span style=&quot;color: rgb(51 , 51 , 51) ; text-align: justify ; background-color: rgb(255 , 255 , 255)&quot;&gt;&lt;font style=&quot;font-size: 11px&quot;&gt;Начальник отдела социальной работы&amp;nbsp;&lt;/font&gt;&lt;/span&gt;&lt;/font&gt;&lt;span style=&quot;color: rgb(51 , 51 , 51) ; text-align: justify ; background-color: rgb(255 , 255 , 255)&quot;&gt;&lt;font style=&quot;font-size: 11px&quot;&gt;Рябикина Наталья Валентиновна&lt;/font&gt;&lt;/span&gt;&lt;/font&gt;" style="shape=callout;whiteSpace=wrap;html=1;perimeter=calloutPerimeter;size=20;position=0.08;position2=0.08;" vertex="1" parent="1">
          <mxGeometry x="240" y="200" width="250" height="100" as="geometry" />
        </mxCell>
        <mxCell id="odwM-vzNzOkf9QKxyUFN-19" style="edgeStyle=orthogonalEdgeStyle;rounded=0;orthogonalLoop=1;jettySize=auto;html=1;" edge="1" parent="1" source="odwM-vzNzOkf9QKxyUFN-16" target="odwM-vzNzOkf9QKxyUFN-18">
          <mxGeometry relative="1" as="geometry" />
        </mxCell>
        <mxCell id="odwM-vzNzOkf9QKxyUFN-16" value="Формируется Приказ имеющий технический характер(для передачи документа Планируемый заезд в 1С: БИТ Общежитие)" style="rounded=0;whiteSpace=wrap;html=1;" vertex="1" parent="1">
          <mxGeometry x="40" y="520" width="270" height="50" as="geometry" />
        </mxCell>
        <mxCell id="odwM-vzNzOkf9QKxyUFN-18" value="Формируется документ &quot;Планируемый заезд&quot; в 1С: БИТ Общежитие и с ним из 1С: Университет подтягиваются данные Физических лиц" style="rounded=0;whiteSpace=wrap;html=1;" vertex="1" parent="1">
          <mxGeometry x="40" y="590" width="270" height="70" as="geometry" />
        </mxCell>
        <mxCell id="odwM-vzNzOkf9QKxyUFN-22" value="&lt;font style=&quot;font-size: 12px ; background-color: rgb(255 , 255 , 255)&quot;&gt;&lt;span style=&quot;color: rgb(0 , 0 , 0) ; font-style: normal ; font-weight: 400 ; letter-spacing: normal ; text-align: center ; text-indent: 0px ; text-transform: none ; word-spacing: 0px ; display: inline ; float: none&quot;&gt;Регистрация Физического лица в 1С: Университет. Если в поле &quot;Гражданство страны&quot; находится наименование отличное от Россия, по появляется поле в виде &quot;галочки&quot; &quot;Нуждается в общежитии&quot;&amp;nbsp;&lt;/span&gt;&lt;br&gt;&lt;/font&gt;" style="rounded=0;whiteSpace=wrap;html=1;" vertex="1" parent="1">
          <mxGeometry x="500" y="200" width="240" height="85" as="geometry" />
        </mxCell>
        <mxCell id="odwM-vzNzOkf9QKxyUFN-23" value="&lt;span style=&quot;background-color: rgb(255 , 255 , 255)&quot;&gt;&lt;span&gt;Управление по работе с иностранными студентами&amp;nbsp;&lt;/span&gt;&lt;span style=&quot;color: rgb(51 , 51 , 51) ; text-align: justify&quot;&gt;Донец Роксана Владимировна&lt;/span&gt;&lt;/span&gt;" style="shape=callout;whiteSpace=wrap;html=1;perimeter=calloutPerimeter;size=20;position=0.08;position2=0.08;" vertex="1" parent="1">
          <mxGeometry x="680" y="135" width="250" height="65" as="geometry" />
        </mxCell>
        <mxCell id="odwM-vzNzOkf9QKxyUFN-24" style="edgeStyle=orthogonalEdgeStyle;rounded=0;orthogonalLoop=1;jettySize=auto;html=1;exitX=0.5;exitY=1;exitDx=0;exitDy=0;" edge="1" parent="1" source="odwM-vzNzOkf9QKxyUFN-22" target="odwM-vzNzOkf9QKxyUFN-22">
          <mxGeometry relative="1" as="geometry" />
        </mxCell>
        <mxCell id="odwM-vzNzOkf9QKxyUFN-29" style="edgeStyle=orthogonalEdgeStyle;rounded=0;orthogonalLoop=1;jettySize=auto;html=1;" edge="1" parent="1" source="odwM-vzNzOkf9QKxyUFN-26" target="odwM-vzNzOkf9QKxyUFN-27">
          <mxGeometry relative="1" as="geometry" />
        </mxCell>
        <mxCell id="odwM-vzNzOkf9QKxyUFN-26" value="Общежитие - Проживающие- Создать: Вводится серия и номер паспорта" style="rounded=0;whiteSpace=wrap;html=1;" vertex="1" parent="1">
          <mxGeometry x="940" y="130" width="210" height="40" as="geometry" />
        </mxCell>
        <mxCell id="odwM-vzNzOkf9QKxyUFN-27" value="Вызывается обработка (пмк) Получить данные университет" style="rounded=0;whiteSpace=wrap;html=1;" vertex="1" parent="1">
          <mxGeometry x="940" y="190" width="210" height="40" as="geometry" />
        </mxCell>
        <mxCell id="odwM-vzNzOkf9QKxyUFN-32" style="edgeStyle=orthogonalEdgeStyle;rounded=0;orthogonalLoop=1;jettySize=auto;html=1;entryX=0.5;entryY=0;entryDx=0;entryDy=0;" edge="1" parent="1" source="odwM-vzNzOkf9QKxyUFN-30" target="odwM-vzNzOkf9QKxyUFN-16">
          <mxGeometry relative="1" as="geometry" />
        </mxCell>
        <mxCell id="odwM-vzNzOkf9QKxyUFN-30" value="Создать - Приказ на заселение" style="rounded=0;whiteSpace=wrap;html=1;" vertex="1" parent="1">
          <mxGeometry x="40" y="470" width="270" height="20" as="geometry" />
        </mxCell>
      </root>
    </mxGraphModel>
  </diagram>
</mxfile>
